<svg xmlns="http://www.w3.org/2000/svg" width="112.993" height="14.863" viewBox="0 0 112.993 14.863">
  <g id="Group_57742" data-name="Group 57742" transform="translate(0 0)">
    <g id="Group_14619" data-name="Group 14619" transform="translate(0 0)">
      <g id="Group_14618" data-name="Group 14618">
        <g id="Group_14617" data-name="Group 14617">
          <path id="Path_5852" data-name="Path 5852" d="M103.1.9h8.67V4.25h-5.236V6.361h4.279v3.35h-4.279v2.224h5.236v3.35H103.1Z" transform="translate(-74.078 -0.675)" fill="#333"/>
          <path id="Path_5853" data-name="Path 5853" d="M67.347,5.871a3.316,3.316,0,0,0-.7-1.83,2.074,2.074,0,0,0-1.21-.479,1.571,1.571,0,0,0-1.464,1.126A8.054,8.054,0,0,0,63.491,7.7c0,2.533.676,3.856,2,3.856,1.013,0,1.689-.9,1.858-2.477H70.7a7.854,7.854,0,0,1-1.464,4.307,4.466,4.466,0,0,1-3.547,1.576,5.638,5.638,0,0,1-3.04-.816A5.223,5.223,0,0,1,60.7,11.613,10.436,10.436,0,0,1,60,7.7a11.015,11.015,0,0,1,.76-4.307A6.5,6.5,0,0,1,62.787.86,5.068,5.068,0,0,1,65.292.1a5,5,0,0,1,4,1.717A7.918,7.918,0,0,1,70.641,5.9H67.347Z" transform="translate(-43.11 -0.1)" fill="#333"/>
          <rect id="Rectangle_7929" data-name="Rectangle 7929" width="3.434" height="14.384" transform="translate(12.076 0.225)" fill="#333"/>
          <path id="Path_5854" data-name="Path 5854" d="M0,.9H3.1L6.756,8.81V.9h3.322V15.284H6.812l-3.575-7.8-.028,3.378.028,4.419H0Z" transform="translate(0 -0.675)" fill="#333"/>
          <rect id="Rectangle_7930" data-name="Rectangle 7930" width="3.153" height="3.153" transform="translate(27.53 5.799)" fill="#61b5ed"/>
          <rect id="Rectangle_7931" data-name="Rectangle 7931" width="3.153" height="3.153" transform="translate(15.51 5.799)" fill="#61b5ed"/>
          <rect id="Rectangle_7932" data-name="Rectangle 7932" width="3.153" height="3.153" transform="translate(8.923 5.799)" fill="#61b5ed"/>
        </g>
      </g>
      <rect id="Rectangle_7933" data-name="Rectangle 7933" width="3.153" height="3.153" transform="translate(40.535 5.883)" fill="#61b5ed"/>
    </g>
    <rect id="Rectangle_7934" data-name="Rectangle 7934" width="0.873" height="7.854" transform="translate(47.854 5.292)" fill="#333"/>
    <path id="Path_5855" data-name="Path 5855" d="M170.222,10.7h.113a.439.439,0,0,0,.422-.45v-.2a.439.439,0,0,0-.422-.45h-.113a.439.439,0,0,0-.422.45v.2A.439.439,0,0,0,170.222,10.7Z" transform="translate(-122.002 -6.926)" fill="#333"/>
    <path id="Path_5856" data-name="Path 5856" d="M186.168,19.057a2.9,2.9,0,0,0-.929-.7,3.216,3.216,0,0,0-1.351-.253,2.868,2.868,0,0,0-1.126.2,2.622,2.622,0,0,0-1.379,1.1.682.682,0,0,0-.169.31l-.141-1.379a.061.061,0,0,0-.056-.056H180.2v7.966h1.013v-4.11a3.677,3.677,0,0,1,.141-1.1,3.35,3.35,0,0,1,.479-1.013,2.26,2.26,0,0,1,.816-.732A2.194,2.194,0,0,1,183.8,19a2.881,2.881,0,0,1,.9.141,1.3,1.3,0,0,1,.647.45,2.279,2.279,0,0,1,.394.873,6.392,6.392,0,0,1,.141,1.407v4.363H186.9V21.816A3.932,3.932,0,0,0,186.168,19.057Z" transform="translate(-129.474 -13.033)" fill="#333"/>
    <path id="Path_5857" data-name="Path 5857" d="M218.1,14.742a.346.346,0,0,0-.591-.169l-.056.056a5.182,5.182,0,0,1-.563.535,3.182,3.182,0,0,1-.816.422,3.445,3.445,0,0,1-1.154.169,2.986,2.986,0,0,1-1.351-.31,3.165,3.165,0,0,1-1.013-.816,3.576,3.576,0,0,1-.647-1.21,5.168,5.168,0,0,1-.225-1.492,5.363,5.363,0,0,1,.225-1.52,3.438,3.438,0,0,1,.676-1.267,3.245,3.245,0,0,1,1.07-.873,3.165,3.165,0,0,1,3.1.141,4.565,4.565,0,0,1,.788.7.607.607,0,0,0,.9.056l.9-.844a7.073,7.073,0,0,0-.732-.873,4.006,4.006,0,0,0-.957-.7,5.473,5.473,0,0,0-1.182-.479,5.582,5.582,0,0,0-1.436-.169,5.031,5.031,0,0,0-2.2.479,5.145,5.145,0,0,0-1.717,1.267A6.191,6.191,0,0,0,209.994,9.7a6.875,6.875,0,0,0,0,4.588,5.662,5.662,0,0,0,1.1,1.83,5.167,5.167,0,0,0,1.689,1.21,5.413,5.413,0,0,0,2.168.422,4.79,4.79,0,0,0,1.436-.225,6.421,6.421,0,0,0,1.267-.563,5.943,5.943,0,0,0,1.013-.76h0a4.146,4.146,0,0,1-.281-.619A7.423,7.423,0,0,1,218.1,14.742Z" transform="translate(-150.598 -4.411)" fill="#333"/>
    <path id="Path_5858" data-name="Path 5858" d="M244.2,24.794a3.462,3.462,0,0,0,1.267.9,3.85,3.85,0,0,0,1.633.338,3.942,3.942,0,0,0,1.633-.338,3.914,3.914,0,0,0,2.083-2.224,4.714,4.714,0,0,0,0-3.209A4.194,4.194,0,0,0,250,18.939a3.918,3.918,0,0,0-2.9-1.239,3.943,3.943,0,0,0-1.633.338,4.509,4.509,0,0,0-1.267.9,4.194,4.194,0,0,0-.816,1.323,4.714,4.714,0,0,0,0,3.209A4.194,4.194,0,0,0,244.2,24.794Zm.929-3.8a2.589,2.589,0,0,1,.394-.788,2.618,2.618,0,0,1,.647-.591,2.029,2.029,0,0,1,1.858,0,1.855,1.855,0,0,1,.647.591,2.953,2.953,0,0,1,.394.788,2.776,2.776,0,0,1,0,1.745,2.589,2.589,0,0,1-.394.788,1.855,1.855,0,0,1-.647.591,2.029,2.029,0,0,1-1.858,0,1.855,1.855,0,0,1-.647-.591,2.954,2.954,0,0,1-.394-.788,3.139,3.139,0,0,1-.141-.873A3.312,3.312,0,0,1,245.127,20.993Z" transform="translate(-174.668 -12.746)" fill="#333"/>
    <path id="Path_5859" data-name="Path 5859" d="M274.7,18.341h1.407a.428.428,0,0,1,.422.394l.028.507a1.911,1.911,0,0,1,.338-.338,3.518,3.518,0,0,1,.479-.338,2.391,2.391,0,0,1,.619-.253,3.323,3.323,0,0,1,.788-.113,2.643,2.643,0,0,1,2.139.873,3.65,3.65,0,0,1,.732,2.365v4.757h-1.886V21.409a1.588,1.588,0,0,0-.394-1.154,1.3,1.3,0,0,0-1.013-.422,1.526,1.526,0,0,0-.7.169,1.481,1.481,0,0,0-.563.45,2.126,2.126,0,0,0-.366.647,2.479,2.479,0,0,0-.141.816v4.251H274.7Z" transform="translate(-197.373 -13.105)" fill="#333"/>
    <path id="Path_5860" data-name="Path 5860" d="M307.221,17.535v-.056a7.818,7.818,0,0,1-1.182.788,1.641,1.641,0,0,1-.7.141.586.586,0,0,1-.591-.366,2.137,2.137,0,0,1-.113-1.013V13.651h2.027V12.018h-2V9.4h-2.027v2.646H301v1.633h1.633v3.491a5.194,5.194,0,0,0,.084,1.182,2.323,2.323,0,0,0,.394.929,1.985,1.985,0,0,0,.76.591,2.829,2.829,0,0,0,1.154.2,4.037,4.037,0,0,0,1.21-.2,4.947,4.947,0,0,0,1.295-.76.028.028,0,0,0-.028-.028A4.339,4.339,0,0,1,307.221,17.535Z" transform="translate(-216.27 -6.782)" fill="#333"/>
    <path id="Path_5861" data-name="Path 5861" d="M332.418,19.389a2.462,2.462,0,0,0-.619-.9,2.876,2.876,0,0,0-.985-.591,3.79,3.79,0,0,0-1.295-.2,6.681,6.681,0,0,0-1.154.084,5.586,5.586,0,0,0-.873.225,3.756,3.756,0,0,0-.676.31,3.949,3.949,0,0,0-.507.338l.394.619a.892.892,0,0,0,1.126.31L328,19.5a3.093,3.093,0,0,1,1.267-.225,2.049,2.049,0,0,1,1.21.338,1.1,1.1,0,0,1,.479.929v.2c-.2,0-.45-.028-.619-.028s-.366-.028-.535-.028h-.507a4.243,4.243,0,0,0-1.351.2,3.04,3.04,0,0,0-1.042.535,2.911,2.911,0,0,0-.676.873,1.7,1.7,0,0,0-.169.535h0A2.524,2.524,0,0,0,326,23.5a2.247,2.247,0,0,0,.2,1.013h0c.028.028.028.084.056.113a2.418,2.418,0,0,0,.591.788,2.654,2.654,0,0,0,1.717.591,3.2,3.2,0,0,0,1.379-.31,2.425,2.425,0,0,0,.929-.619v.141a.73.73,0,0,0,.7.676h1.013V20.543A2.62,2.62,0,0,0,332.418,19.389Zm-1.436,3.631a1.048,1.048,0,0,1-.2.563,2.241,2.241,0,0,1-.422.479,2.025,2.025,0,0,1-.591.338,1.745,1.745,0,0,1-.647.113,1.491,1.491,0,0,1-.957-.281.982.982,0,0,1-.338-.788,1.215,1.215,0,0,1,.366-.873,1.749,1.749,0,0,1,1.267-.366h.422a2.894,2.894,0,0,1,.507.028c.141,0,.281.028.422.028a.182.182,0,0,1,.169.169Z" transform="translate(-234.232 -12.746)" fill="#333"/>
    <path id="Path_5862" data-name="Path 5862" d="M359.525,24.766a3.681,3.681,0,0,1-1.239.929,3.89,3.89,0,0,1-1.661.338,4.516,4.516,0,0,1-1.689-.31,3.341,3.341,0,0,1-1.267-.844,4.13,4.13,0,0,1-.788-1.323,5.308,5.308,0,0,1-.281-1.689,4.377,4.377,0,0,1,.281-1.6,4.194,4.194,0,0,1,.816-1.323,3.918,3.918,0,0,1,2.9-1.239,4.075,4.075,0,0,1,1.661.338,3.528,3.528,0,0,1,1.267.929l-.647.676a.822.822,0,0,1-1.042.141,1.142,1.142,0,0,0-.253-.141,2.209,2.209,0,0,0-.985-.225,1.889,1.889,0,0,0-.929.2,2,2,0,0,0-.647.535,2.3,2.3,0,0,0-.394.788,3.54,3.54,0,0,0-.141.929,2.981,2.981,0,0,0,.141.873,2.589,2.589,0,0,0,.394.788,2.082,2.082,0,0,0,.647.563,1.889,1.889,0,0,0,.929.225,2.429,2.429,0,0,0,1.013-.225c.084-.056.2-.113.281-.169a.818.818,0,0,1,1.042.141Z" transform="translate(-253.344 -12.746)" fill="#333"/>
    <path id="Path_5863" data-name="Path 5863" d="M381.167,13.738H379.9v-1.6h1.267V9.6h1.886v2.533h2v1.6h-2.027v3.434a1.929,1.929,0,0,0,.225,1.013.722.722,0,0,0,.7.366,1.551,1.551,0,0,0,.7-.141h0a.7.7,0,0,1,.845.2l.45.7a4,4,0,0,1-1.1.7,3.312,3.312,0,0,1-1.21.2,2.829,2.829,0,0,1-1.154-.2,1.985,1.985,0,0,1-.76-.591,2.352,2.352,0,0,1-.422-.929,5.232,5.232,0,0,1-.141-1.182Z" transform="translate(-272.96 -6.926)" fill="#333"/>
  </g>
</svg>
